<svg id="Warstwa_1" data-name="Warstwa 1" xmlns="http://www.w3.org/2000/svg" xmlns:xlink="http://www.w3.org/1999/xlink" viewBox="0 0 65.61 54.44"><defs><style>.cls-1{fill:url(#Gradient_bez_nazwy_9);}.cls-2{fill:#fff;}</style><linearGradient id="Gradient_bez_nazwy_9" x1="34.68" y1="25.24" x2="42.06" y2="25.24" gradientUnits="userSpaceOnUse"><stop offset="0.11" stop-color="#005a7b"/><stop offset="1" stop-color="#366aa4"/></linearGradient></defs><rect class="cls-1" x="34.68" y="4.77" width="7.38" height="40.95"/><path class="cls-2" d="M229.46,381.21V333H224a5,5,0,0,0-1.52.19,2.19,2.19,0,0,0-1,1.07l-4.37,7.93-2.25,4.1-7.37,13.39-.4.74-4,7.31c-.24.41-.45.83-.64,1.24l5.07-2.57v6.05l9-16.41,1.9-3.49,4.76-8.69c0,.64-.08,1.27-.11,1.87s0,1.17,0,1.71v33.81h-2.25v6.19h10.94v-6.19Zm-31.31-7.6v-8.45l-17.36-30.94a2.21,2.21,0,0,0-1-1.07,4.89,4.89,0,0,0-1.52-.19h-5.43V387.4h6.46v-40c0-.54,0-1.11-.05-1.74s-.1-1.28-.18-2l19.08,34.16a2.93,2.93,0,0,0,2.66,1.71h1.06a2.94,2.94,0,0,0,2.66-1.71l.74-1.36V370Z" transform="translate(-172.81 -332.96)"/><path class="cls-2" d="M224,333a5,5,0,0,0-1.52.19,2.19,2.19,0,0,0-1,1.07l-4.37,7.93-2.25,4.1-7.37,13.39-.4.74-4,7.31c-.24.41-.45.83-.64,1.24l5.07-2.57v6.05l9-16.41,1.9-3.49,4.76-8.69c0,.64-.08,1.27-.11,1.87s0,1.17,0,1.71v40h6.46V333Zm-25.86,40.65v-8.45l-17.36-30.94a2.21,2.21,0,0,0-1-1.07,4.89,4.89,0,0,0-1.52-.19h-5.43V387.4h6.46v-40c0-.54,0-1.11-.05-1.74s-.1-1.28-.18-2l19.08,34.16a2.93,2.93,0,0,0,2.66,1.71h1.06a3.38,3.38,0,0,0,3-1.72l.44-1.35V370Z" transform="translate(-172.81 -332.96)"/><polygon class="cls-2" points="42.06 8.6 34.68 22 34.68 0 42.06 0 42.06 8.6"/><path class="cls-2" d="M218.38,352.51l-1.9,3.49-9,16.41v-6.05l-5.07,2.57c.19-.41.4-.83.64-1.24l4-7.31.4-.74,7.37-13.39,2.25-4.1v11Z" transform="translate(-172.81 -332.96)"/><polygon class="cls-2" points="56.65 13.88 56.65 24.93 50.19 28.33 50.19 17.19 56.65 13.88"/><polygon class="cls-2" points="65.61 48.25 65.61 54.44 34.68 54.44 34.68 44.1 42.06 30.64 42.06 48.25 50.19 48.25 50.19 46 56.65 46 56.65 48.25 65.61 48.25"/><path class="cls-2" d="M207.49,333v22l7.37-13.41V333Zm7.37,48.25v-17.6l-7.37,13.45V387.4h30.93v-6.19ZM223,352.67v6.11l5.43-2.86a1.76,1.76,0,0,0,1-1.65v-4.89ZM216.48,356l-1.62.82V346.25l-7.37,13.39v.52l-.4.22-4,7.31c-.24.41-.45.83-.64,1.24l5.07-2.57v6.05Z" transform="translate(-172.81 -332.96)"/></svg>